<svg width="105" height="105" viewBox="0 0 105 105" fill="none" xmlns="http://www.w3.org/2000/svg">
<path d="M59.2265 97.125C59.3643 96.8133 59.7121 96.5967 59.9648 96.3342C63.8202 92.2917 67.7085 88.2853 71.5115 84.1936C72.7015 83.0945 73.6211 81.735 74.1983 80.2214C74.7755 78.7078 74.9947 77.0811 74.8387 75.4688C74.7193 74.7783 74.5627 74.0948 74.3695 73.4212C73.3326 74.4056 72.3679 75.3014 71.3966 76.2038C69.8873 77.6081 68.3845 79.0191 66.862 80.407C65.9642 81.3224 64.8099 81.9439 63.5515 82.1893C62.2931 82.4348 60.9898 82.2927 59.8138 81.7819C58.6234 81.3446 57.5877 80.5672 56.8352 79.5464C56.0827 78.5256 55.6466 77.3062 55.581 76.0397C55.5458 75.8768 55.4986 75.7167 55.4399 75.5606C54.2816 76.545 53.1726 77.4506 52.0734 78.3825L29.226 97.7419C29.0685 97.8764 28.8979 98.0438 28.7502 98.175H59.2101L59.1641 98.1455C59.0001 98.0306 59.0854 97.4269 59.2265 97.125V97.125Z" fill="#FFCEBF"/>
<path d="M27.3557 97.125C27.6266 96.7722 27.9536 96.4663 28.3237 96.2194L59.9418 69.3951C62.0987 67.5642 64.2457 65.7234 66.3829 63.8728C66.6469 63.6887 66.8539 63.434 66.9801 63.1378C67.4913 60.9102 67.5637 58.6043 67.1934 56.3489C66.8652 56.5786 66.688 56.677 66.5371 56.8378C63.9482 59.1544 61.3724 61.4906 58.7704 63.7941C57.9084 64.6616 56.7935 65.2335 55.5861 65.4274C54.3786 65.6214 53.1407 65.4275 52.0504 64.8736C50.938 64.3485 50.0071 63.5042 49.376 62.4484C48.7449 61.3925 48.4423 60.1728 48.5066 58.9444V57.8812C48.0308 58.2291 47.683 58.462 47.3582 58.7245C34.7035 68.857 22.051 78.9819 9.40069 89.0991C8.82976 89.5551 8.14726 90.5723 7.39913 89.5847C6.65101 88.597 7.7896 88.1901 8.36382 87.7308C21.8498 76.9092 35.3423 66.0975 48.8413 55.2956C51.0398 53.5336 51.1841 52.7953 49.7535 49.9964L48.9004 50.797C46.5608 52.9725 44.1951 55.1184 41.8916 57.33C40.9468 58.2414 39.7634 58.867 38.4781 59.1345C37.1929 59.402 35.8582 59.3005 34.6281 58.8417C33.3981 58.383 32.3229 57.5857 31.5267 56.542C30.7304 55.4982 30.2457 54.2505 30.1283 52.943C29.6919 53.2711 29.3146 53.5106 28.9569 53.7895L8.94132 69.3033C8.5961 69.6419 8.20242 69.9272 7.77319 70.1498C7.44925 70.2477 7.10138 70.2303 6.78882 70.1006V98.1914H27.3163C27.24 98.0227 27.2038 97.8386 27.2107 97.6536C27.2175 97.4685 27.2671 97.2876 27.3557 97.125V97.125Z" fill="#FFCEBF"/>
<path d="M82.809 7.95047C82.2511 9.77813 81.7097 11.6091 81.2208 13.4564C80.7692 14.7619 80.8218 16.189 81.3681 17.4577C81.9145 18.7265 82.9152 19.7453 84.174 20.3142C88.0242 22.3381 92.3629 23.2472 96.7018 22.9392V8.26219C96.6536 7.9404 96.6714 7.61216 96.7543 7.2975C96.8462 7.11951 96.9621 6.955 97.0988 6.80859H82.7958C83.0157 7.06453 82.9402 7.51406 82.809 7.95047V7.95047Z" fill="#FF6196"/>
<path d="M54.0815 39.48C54.0135 41.1182 53.4404 42.6953 52.4409 43.995C48.8677 48.6076 44.7641 52.7838 40.215 56.4375C39.4813 57.1166 38.5515 57.5459 37.5588 57.6637C36.5661 57.7816 35.5616 57.5821 34.6893 57.0937C33.8211 56.7228 33.0891 56.0922 32.5938 55.2884C32.0985 54.4847 31.8643 53.5473 31.9232 52.605C32.0283 51.4477 32.5088 50.3565 33.2915 49.4977C38.3786 44.647 43.8901 40.2621 49.7601 36.3956C50.1446 36.0942 50.6141 35.9212 51.1022 35.9012C51.5903 35.8811 52.0724 36.0151 52.4803 36.2841C53.0163 36.6169 53.4497 37.0917 53.7323 37.6558C54.015 38.22 54.1358 38.8514 54.0815 39.48V39.48Z" fill="#FF87AF"/>
<path d="M50.1505 59.3677C50.0744 58.6424 50.1675 57.9093 50.4226 57.2261C50.6776 56.5428 51.0877 55.9281 51.6205 55.4302C56.6014 50.8361 61.9454 46.652 67.6002 42.9188C67.7709 42.8105 67.9284 42.7022 68.1154 42.5906C68.6093 42.234 69.2078 42.0518 69.8167 42.0726C70.4255 42.0934 71.0102 42.316 71.4787 42.7055C71.932 43.0894 72.2527 43.6065 72.3952 44.1832C72.5378 44.7599 72.4949 45.3669 72.2727 45.9178C71.5573 48.3006 70.237 50.4575 68.4402 52.1784C64.7912 55.7732 61.0718 59.2958 57.284 62.7441C56.7135 63.3307 55.9642 63.7109 55.154 63.825C54.3437 63.939 53.5186 63.7804 52.8084 63.3741C52.0621 62.9863 51.4266 62.4151 50.9617 61.7143C50.4968 61.0135 50.2177 60.206 50.1505 59.3677Z" fill="#FF87AF"/>
<path d="M73.8281 61.5366C72.9094 62.5209 71.9644 63.4594 71.0817 64.4667C70.8163 64.8561 70.5961 65.2744 70.4254 65.7136C70.9111 65.858 71.4787 66.2386 71.8725 66.1041C73.8773 65.4314 75.8329 64.6242 78.0347 63.7744C77.5556 64.8769 77.1947 65.8941 76.6861 66.8259C74.5908 70.3472 71.9669 73.5255 68.9062 76.2497C67.7425 77.3719 66.5339 78.4448 65.2805 79.4686C64.6167 80.0194 63.8185 80.3841 62.9675 80.5252C62.1166 80.6663 61.2434 80.5789 60.4373 80.2718C59.6313 79.9648 58.9213 79.4491 58.3799 78.7775C57.8385 78.106 57.4853 77.3027 57.3562 76.4498C57.3036 75.9756 57.3456 75.4957 57.4796 75.0378C57.6137 74.5799 57.8372 74.1532 58.1372 73.7822C62.6024 68.9333 67.7054 64.7134 73.3064 61.238C73.3745 61.2116 73.4466 61.1971 73.5197 61.1953L73.8281 61.5366Z" fill="#FF87AF"/>
<path d="M81.3552 48.4673L86.9694 23.5298L90.9069 24.4519L88.8758 30.6239C86.9793 36.3661 85.0597 42.1083 83.2091 47.857C82.8482 48.9202 82.3757 49.117 81.3552 48.4673V48.4673Z" fill="#FF6196"/>
<path d="M75.0159 63.1345C75.6098 60.8672 76.2004 58.7705 76.6992 56.6508C77.1852 54.5952 78.1098 52.6689 79.4095 51.0038C80.2068 49.957 81.1026 50.3738 82.0181 50.6002C82.8646 50.8069 83.0779 51.427 83.114 52.2408C83.2475 54.4911 82.5622 56.7137 81.1846 58.4981C79.5447 60.5312 77.4248 62.1245 75.0159 63.1345V63.1345Z" fill="#FF6196"/>
<path d="M98.4144 9.49593C98.4634 8.76515 98.4447 8.0314 98.3586 7.30405C98.2909 7.10089 98.1569 6.92638 97.978 6.80858C97.8324 6.69015 97.6619 6.60603 97.4793 6.56249C97.3743 6.5428 97.2266 6.65108 97.0855 6.8053C96.9488 6.95171 96.8329 7.11622 96.741 7.29421C96.6581 7.60887 96.6403 7.93711 96.6885 8.2589V22.9326C92.3496 23.2406 88.0109 22.3315 84.1607 20.3076C82.9019 19.7387 81.9012 18.7199 81.3548 17.4512C80.8085 16.1824 80.756 14.7553 81.2076 13.4498C81.6965 11.6025 82.2379 9.77155 82.7957 7.9439C82.9269 7.50749 83.0024 7.05796 82.7957 6.80202C82.6807 6.67743 82.5219 6.60217 82.3527 6.59202C82.136 6.59436 81.926 6.66818 81.7555 6.80202C81.5101 6.94879 81.3146 7.16603 81.1944 7.42546C80.5382 9.39421 79.9607 11.3826 79.4586 13.3908C79.2691 14.1821 79.218 15.0003 79.3077 15.8091C79.4347 17.2724 79.9789 18.6686 80.8758 19.8318C81.7726 20.9951 82.9845 21.8765 84.3674 22.3716C84.9876 22.6308 85.3518 22.8867 85.1779 23.7037C84.9383 24.7406 84.7054 25.7775 84.4691 26.8176C82.8613 33.8658 81.2622 40.9172 79.6719 47.9719C79.6271 48.2864 79.4888 48.5802 79.2749 48.8151C78.2267 49.6483 77.346 50.6726 76.6794 51.8339C75.83 53.3664 75.2422 55.0298 74.9404 56.7558C74.8824 57.3063 74.6835 57.8326 74.3628 58.2838C74.042 58.735 73.6103 59.0959 73.1094 59.3316C71.7411 60.0239 70.4844 60.9197 68.9652 61.8515C69.0665 60.0246 69.0468 58.1929 68.9061 56.3686C68.7905 55.8074 68.8151 55.2263 68.9776 54.6769C69.1402 54.1274 69.4357 53.6266 69.838 53.2186C71.8393 51.236 73.2658 48.7481 73.9658 46.0195C74.1749 45.387 74.2323 44.7142 74.1332 44.0554C74.0341 43.3966 73.7815 42.7704 73.3956 42.2274C73.0097 41.6843 72.5015 41.2397 71.9119 40.9295C71.3224 40.6192 70.6682 40.452 70.0021 40.4414C68.9236 40.4294 67.8648 40.7303 66.9538 41.3076C63.8228 43.4457 60.7462 45.6624 57.7269 47.9555C55.9321 49.3073 54.2422 50.8036 52.5032 52.2211C52.4282 52.1406 52.3632 52.0513 52.3096 51.9553C52.2763 51.7137 52.2112 51.4776 52.116 51.2531C50.6624 49.0087 51.6697 47.378 53.248 45.7012C54.8923 43.9776 55.8008 41.6815 55.7811 39.2995C55.8321 38.0859 55.452 36.8933 54.7082 35.933C54.3119 35.4455 53.8236 35.0408 53.271 34.7419C52.4861 34.3123 51.5886 34.133 50.6989 34.228C49.8092 34.323 48.9698 34.6878 48.2933 35.2734L47.3779 35.9297C45.2877 37.4259 43.1713 38.8828 41.1599 40.4841C38.2235 42.8284 35.3503 45.2509 32.5433 47.7487C31.2308 48.907 30.2727 50.4886 28.911 51.5648C21.8104 57.1725 14.6343 62.6784 7.48442 68.2205C7.23857 68.3671 7.01252 68.5447 6.81177 68.7487C6.7911 68.7786 6.77351 68.8105 6.75926 68.8439C6.60833 69.195 6.48036 69.7758 6.65755 69.989C6.70098 70.0353 6.75347 70.0722 6.81177 70.0973C7.12433 70.2271 7.47219 70.2445 7.79614 70.1465C8.22536 69.9239 8.61905 69.6386 8.96427 69.3L28.9799 53.7862C29.3375 53.5073 29.7149 53.2547 30.1513 52.9397C30.2686 54.2472 30.7534 55.4949 31.5496 56.5387C32.3458 57.5824 33.421 58.3797 34.6511 58.8385C35.8811 59.2972 37.2158 59.3987 38.5011 59.1312C39.7863 58.8637 40.9697 58.2381 41.9146 57.3267C44.2115 55.1151 46.5838 52.9692 48.9233 50.7937L49.7765 49.9931C51.2071 52.792 51.0627 53.5303 48.8643 55.2923C35.3543 66.103 21.8541 76.9158 8.3638 87.7308C7.78958 88.1901 6.65427 88.6069 7.39911 89.5847C8.14395 90.5625 8.82973 89.5551 9.40067 89.099C22.0575 78.9906 34.7057 68.869 47.345 58.7344C47.6732 58.4719 48.0177 58.2389 48.4935 57.8911V58.9542C48.4292 60.1826 48.7318 61.4024 49.3629 62.4582C49.9939 63.5141 50.9249 64.3583 52.0372 64.8834C53.1276 65.4373 54.3654 65.6313 55.5729 65.4373C56.7804 65.2433 57.8953 64.6714 58.7572 63.8039C61.3593 61.507 63.9351 59.1642 66.524 56.8476C66.688 56.7 66.8783 56.5884 67.1802 56.3587C67.5506 58.6141 67.4781 60.92 66.9669 63.1476C66.8407 63.4438 66.6338 63.6985 66.3697 63.8826C64.2304 65.7311 62.0833 67.5719 59.9286 69.405L28.3236 96.2325C27.9536 96.4794 27.6266 96.7853 27.3557 97.1381C27.2692 97.299 27.2207 97.4776 27.2139 97.6602C27.2071 97.8427 27.2421 98.0244 27.3163 98.1914C27.4646 98.3025 27.6359 98.3787 27.8177 98.4145C27.9995 98.4503 28.187 98.4447 28.3663 98.3981C28.5078 98.357 28.638 98.2841 28.7469 98.1848C28.911 98.0536 29.075 97.8862 29.2227 97.7517L52.0701 78.3923C53.1693 77.4605 54.2783 76.5417 55.4366 75.5705C55.4953 75.7265 55.5424 75.8866 55.5777 76.0495C55.6433 77.316 56.0794 78.5354 56.8318 79.5562C57.5843 80.5771 58.6201 81.3544 59.8105 81.7917C60.9865 82.3026 62.2897 82.4446 63.5482 82.1992C64.8066 81.9537 65.9609 81.3322 66.8586 80.4169C68.3811 79.0289 69.884 77.618 71.3933 76.2136C72.3777 75.3112 73.3293 74.4056 74.3661 73.4311C74.5593 74.1046 74.716 74.7881 74.8354 75.4786C74.9862 77.0857 74.7645 78.7059 74.1874 80.2134C73.6104 81.7209 72.6936 83.075 71.5082 84.1706C67.7052 88.2656 63.8169 92.272 59.9615 96.3112C59.7088 96.5737 59.361 96.7903 59.2232 97.102C59.0854 97.4137 58.9968 98.024 59.1608 98.1553L59.2068 98.1848C59.5508 98.3521 59.9377 98.4105 60.3158 98.3522C60.4218 98.3304 60.5162 98.271 60.5816 98.1848C60.6735 98.0897 60.7621 97.9715 60.8507 97.883C63.9744 94.6542 67.1146 91.4419 70.2154 88.1901C71.467 86.9221 72.6437 85.5821 73.7394 84.1772C75.1683 82.5954 76.1157 80.6384 76.4703 78.5365C76.8249 76.4346 76.5718 74.2752 75.741 72.3122C75.6517 71.8745 75.7389 71.4192 75.9838 71.0456C76.1971 70.6781 76.4333 70.3205 76.6761 69.9661C77.4531 68.9573 78.1002 67.8549 78.6022 66.6848C79.5724 63.813 81.0617 61.1438 82.9958 58.8098C83.885 57.6825 84.4968 56.3619 84.7818 54.9547C85.0668 53.5474 85.017 52.0929 84.6365 50.7084C84.502 50.182 84.502 49.6303 84.6365 49.1039C86.2968 43.9622 88.0063 38.8369 89.6994 33.7083L91.9635 26.8373L92.6624 24.7144C94.1521 24.7144 95.5565 24.6848 96.9543 24.7144C98.1158 24.7472 98.4702 24.2025 98.4571 23.0737C98.3882 18.5456 98.4144 14.0208 98.4144 9.49593V9.49593ZM40.2149 56.4375C39.4813 57.1166 38.5514 57.5458 37.5587 57.6637C36.5661 57.7816 35.5615 57.5821 34.6893 57.0937C33.8211 56.7228 33.089 56.0922 32.5938 55.2884C32.0985 54.4847 31.8642 53.5472 31.9232 52.605C32.0283 51.4477 32.5088 50.3565 33.2915 49.4976C38.3785 44.647 43.8901 40.2621 49.76 36.3956C50.0804 36.1691 50.4449 36.0126 50.8297 35.9362C51.0879 35.8886 51.3525 35.8886 51.6107 35.9362C51.9198 35.9964 52.2148 36.1145 52.4802 36.284C53.0168 36.6172 53.4505 37.0925 53.7332 37.6573C54.0158 38.222 54.1364 38.8541 54.0815 39.4833C54.0134 41.1215 53.4404 42.6985 52.4408 43.9983C48.8674 48.6097 44.7639 52.7848 40.2149 56.4375V56.4375ZM57.2774 62.767C56.707 63.3536 55.9576 63.7339 55.1474 63.8479C54.3371 63.962 53.512 63.8034 52.8018 63.397C52.0542 63.0084 51.4178 62.4357 50.9528 61.733C50.4878 61.0303 50.2095 60.2208 50.144 59.3808C50.0678 58.6555 50.1609 57.9224 50.416 57.2392C50.671 56.5559 51.0811 55.9412 51.614 55.4433C56.5948 50.8492 61.9388 46.6651 67.5936 42.9319C67.7643 42.8236 67.9218 42.7153 68.1088 42.6037C68.6027 42.2471 69.2012 42.0649 69.8101 42.0857C70.4189 42.1065 71.0036 42.3291 71.4721 42.7186C71.9254 43.1026 72.2461 43.6196 72.3886 44.1963C72.5312 44.773 72.4883 45.38 72.2661 45.9309C71.5507 48.3137 70.2304 50.4707 68.4336 52.1915C64.8144 55.8075 61.0508 59.2889 57.284 62.7539L57.2774 62.767ZM76.6729 66.8391C74.5805 70.3547 71.9611 73.5285 68.9061 76.2497C67.7424 77.3719 66.5338 78.4448 65.2804 79.4686C64.6166 80.0194 63.8184 80.3841 62.9674 80.5252C62.1165 80.6663 61.2433 80.5789 60.4373 80.2718C59.6312 79.9647 58.9212 79.4491 58.3798 78.7775C57.8384 78.106 57.4852 77.3027 57.3561 76.4498C57.3035 75.9756 57.3455 75.4957 57.4795 75.0378C57.6136 74.5799 57.8371 74.1531 58.1371 73.7822C62.6023 68.9333 67.7053 64.7133 73.3063 61.238C73.3744 61.2115 73.4466 61.1971 73.5196 61.1953L73.8477 61.5234C72.929 62.5078 71.984 63.4462 71.1013 64.4536C70.8359 64.8429 70.6157 65.2613 70.445 65.7005C70.9307 65.8448 71.4983 66.2255 71.8921 66.0909C73.4769 65.5594 75.0355 64.9425 76.7057 64.2862L78.0543 63.7612C77.549 64.8769 77.188 65.894 76.6794 66.8259L76.6729 66.8391ZM81.178 58.5211C79.9541 60.0793 78.42 61.3664 76.6729 62.3011C76.1326 62.603 75.578 62.8851 75.0093 63.1476C75.5933 60.9131 76.1774 58.8426 76.6729 56.7492L76.6925 56.6639C77.1786 54.6083 78.1032 52.682 79.4029 51.0169C80.2002 49.9701 81.096 50.3869 82.0115 50.6133C82.858 50.82 83.0713 51.4401 83.1074 52.2539C83.2419 54.5023 82.559 56.7235 81.1846 58.508L81.178 58.5211ZM88.8561 30.6305C86.9596 36.3726 85.0401 42.1148 83.1894 47.8636C82.8416 48.9431 82.3691 49.14 81.3486 48.4903L86.2147 26.857L86.9629 23.5364L90.9004 24.4584L90.1096 26.857L88.8561 30.6305Z" fill="black"/>
</svg>
