<svg width="189" height="105" viewBox="0 0 189 105" fill="none" xmlns="http://www.w3.org/2000/svg">
<path d="M44.5959 27.3855H80.2431V29.9948H47.8635V49.6318H78.3124V52.2408H47.8635V73.8005H80.6144V76.4095H44.5959V27.3855ZM83.4369 27.3855H87.2242L104.008 48.9451L121.163 27.3851L144.497 0L106.162 51.2111L125.916 76.4095H121.98L104.008 53.4768L85.9614 76.4095H82.0998L102.003 51.2108L83.4369 27.3855ZM127.327 29.9948V27.3851H167.95V29.9945H149.235V76.4091H145.967V29.9948H127.327ZM0 27.3851H4.08454L60.408 105L37.1326 76.4091L3.41603 31.0931L3.26763 76.4098H0V27.3851ZM167.621 73.0125C166.953 73.0125 166.453 72.5366 166.453 71.9206C166.453 71.3054 166.953 70.8288 167.621 70.8288C168.296 70.8288 168.789 71.305 168.789 71.9206C168.789 72.5363 168.296 73.0125 167.621 73.0125ZM170.832 70.1401H172.58C172.604 71.012 173.295 71.5984 174.313 71.5984C175.449 71.5984 176.093 70.9681 176.093 69.7882V62.3131H177.873V69.7954C177.873 71.9206 176.538 73.1447 174.329 73.1447C172.254 73.1447 170.832 71.9573 170.832 70.1397V70.1401ZM180.202 70.0449H181.966C182.117 71.0487 183.182 71.6861 184.716 71.6861C186.147 71.6861 187.196 71.0045 187.196 70.0666C187.196 69.2606 186.528 68.7769 185.01 68.4472L183.532 68.1174C181.457 67.6701 180.512 66.7468 180.512 65.1933C180.512 63.3101 182.181 62.0568 184.684 62.0568C187.013 62.0568 188.714 63.3098 188.817 65.0907H187.085C186.918 64.1161 185.996 63.5076 184.66 63.5076C183.254 63.5076 182.316 64.1307 182.316 65.0832C182.316 65.8378 182.92 66.2706 184.414 66.5928L185.678 66.8787C188.03 67.3845 189 68.264 189 69.8542C189 71.8768 187.299 73.1447 184.581 73.1447C182.038 73.1447 180.329 71.9352 180.202 70.0445V70.0449Z" fill="black"/>
</svg>
