<svg width="112" height="105" viewBox="0 0 112 105" fill="none" xmlns="http://www.w3.org/2000/svg">
<path d="M92.0863 34.0326C90.8944 33.6017 89.6923 33.2025 88.4813 32.8354C88.6847 31.9595 88.872 31.0942 89.0383 30.2441C91.7674 16.2847 89.9832 5.03862 83.8893 1.33589C78.0465 -2.21379 68.4911 1.48756 58.8407 10.3373C57.8896 11.2111 56.9596 12.11 56.0516 13.0332C55.4438 12.4193 54.8252 11.8173 54.1962 11.2275C44.0821 1.76508 33.9443 -2.22301 27.8569 1.49033C22.0194 5.05107 20.2908 15.6231 22.7478 28.8528C22.9923 30.1631 23.2683 31.4666 23.5756 32.7621C22.1406 33.1918 20.7559 33.6491 19.4307 34.1359C7.57269 38.4923 0 45.3192 0 52.4006C0 59.7143 8.12963 67.0502 20.4803 71.4984C21.4815 71.8575 22.4912 72.1903 23.5082 72.4964C23.1779 73.8917 22.8846 75.2965 22.6288 76.709C20.2864 89.7092 22.1156 100.031 27.9374 103.57C33.9504 107.223 44.0427 103.468 53.8694 94.4164C54.6662 93.6805 55.4455 92.9238 56.2065 92.1469C57.1898 93.1466 58.1994 94.1172 59.234 95.0577C68.7531 103.688 78.1541 107.174 83.9703 103.626C89.9776 99.9613 91.9301 88.8725 89.3953 75.3814C89.1956 74.3244 88.9716 73.2727 88.7237 72.2272C89.4324 72.0059 90.1281 71.7782 90.8062 71.5412C103.646 67.059 112 59.8121 112 52.4006C112 45.2934 104.183 38.4204 92.0863 34.0326V34.0326ZM89.3016 66.7561C88.6891 66.9695 88.0609 67.1756 87.4204 67.3761C86.0029 62.6477 84.0901 57.62 81.7491 52.425C83.9829 47.3541 85.8222 42.3905 87.1999 37.6929C88.3457 38.0424 89.4574 38.4107 90.5292 38.7993C100.894 42.5592 107.215 48.1175 107.215 52.4006C107.215 56.9626 100.388 62.8851 89.3016 66.7561V66.7561ZM84.7018 76.3605C85.8226 82.3258 85.9823 87.7195 85.2399 91.9362C84.5731 95.7252 83.2317 98.251 81.5727 99.2629C78.0434 101.416 70.4952 98.6175 62.3547 91.236C61.3923 90.3616 60.4533 89.4593 59.5385 88.5299C62.6946 84.8931 65.8486 80.6653 68.9268 75.9696C74.3413 75.4634 79.4566 74.6355 84.0954 73.5056C84.3238 74.4769 84.5268 75.4293 84.7018 76.3605V76.3605ZM38.1833 98.8909C34.7349 100.174 31.9882 100.211 30.3279 99.202C26.7951 97.0552 25.3264 88.7669 27.3297 77.6495C27.5679 76.3357 27.8406 75.0292 28.1474 73.7314C32.7351 74.801 37.8131 75.5699 43.2403 76.0337C46.3396 80.6284 49.5845 84.8516 52.8548 88.5498C52.1598 89.2584 51.4484 89.9488 50.7211 90.6206C46.3754 94.6229 42.021 97.4627 38.1833 98.8909V98.8909ZM22.0281 66.728C16.5668 64.7609 12.0566 62.2047 8.96525 59.4152C6.18713 56.9087 4.78494 54.4198 4.78494 52.4006C4.78494 48.1032 10.8649 42.6219 21.0057 38.8966C22.2364 38.4448 23.5244 38.0184 24.8609 37.6183C26.2627 42.4219 28.1011 47.4444 30.3196 52.5232C28.0722 57.6772 26.2076 62.78 24.7922 67.6403C23.8639 67.3601 22.9423 67.0559 22.0281 66.728V66.728ZM27.4435 27.8843C25.3387 16.5497 26.7365 7.99961 30.2544 5.85367C34.0012 3.56804 42.2866 6.82683 51.0195 14.9976C51.589 15.5316 52.1492 16.0764 52.6999 16.6318C49.4458 20.3138 46.2306 24.5056 43.1589 29.0732C37.8914 29.5877 32.8492 30.4138 28.2135 31.5206C27.9279 30.3157 27.6711 29.1033 27.4435 27.8848V27.8843ZM75.7553 40.4548C74.6604 38.4618 73.5248 36.494 72.3494 34.5526C75.9229 35.0288 79.3467 35.6609 82.5619 36.4335C81.5968 39.6937 80.3937 43.1018 78.9775 46.5962C77.9423 44.5267 76.8681 42.4791 75.7553 40.4548V40.4548ZM56.0538 20.235C58.2606 22.7543 60.4708 25.5669 62.6448 28.6187C58.2348 28.3992 53.8174 28.3983 49.4073 28.6159C51.5834 25.5922 53.8125 22.7834 56.0538 20.235ZM36.2259 40.4894C35.127 42.4974 34.0728 44.5322 33.0641 46.592C31.6711 43.1101 30.4789 39.6863 29.5054 36.38C32.7009 35.6267 36.1086 35.0109 39.6594 34.5434C38.4709 36.4966 37.3261 38.479 36.2259 40.4889V40.4894ZM39.7613 70.6165C36.0929 70.185 32.634 69.6009 29.4394 68.8679C30.4281 65.5026 31.6466 62.006 33.0697 58.4494C34.0825 60.5108 35.1411 62.5468 36.2447 64.5557C37.3796 66.621 38.5547 68.6439 39.7613 70.6165ZM56.1859 84.9212C53.9179 82.3433 51.6561 79.4912 49.4471 76.4237C51.5918 76.5122 53.7779 76.5574 56 76.5574C58.2829 76.5574 60.5395 76.5034 62.7607 76.3992C60.5798 79.522 58.3778 82.3784 56.1859 84.9212ZM79.0226 58.2677C80.5197 61.8635 81.7814 65.3417 82.7833 68.6494C79.5362 69.4303 76.0301 70.0591 72.3358 70.5261C73.5196 68.5487 74.6659 66.5467 75.7741 64.5212C76.9008 62.4623 77.9839 60.3773 79.0226 58.2677V58.2677ZM71.6297 62.0023C69.9331 65.1077 68.1412 68.1542 66.2568 71.137C62.8432 71.3917 59.4221 71.5182 56 71.5164C52.5144 71.5164 49.1242 71.402 45.8596 71.1789C43.926 68.2031 42.0999 65.1512 40.3852 62.0299H40.3856C38.679 58.9252 37.0849 55.7532 35.6068 52.5209C37.0812 49.2879 38.6704 46.1145 40.3712 43.0073L40.3708 43.0078C42.0709 39.8998 43.8824 36.8611 45.8014 33.898C49.1321 33.6325 52.5477 33.4942 55.9996 33.4942H56C59.4676 33.4942 62.8876 33.6339 66.2174 33.9012C68.117 36.8599 69.917 39.8882 71.6139 42.9806C73.3204 46.0809 74.9306 49.2389 76.4422 52.4495C74.9462 55.6929 73.341 58.8792 71.6297 62.0023V62.0023ZM81.4997 5.70338C85.2499 7.98256 86.7086 17.1735 84.3522 29.2263C84.2017 29.9952 84.0328 30.7784 83.8491 31.5727C79.2019 30.4424 74.1563 29.602 68.8734 29.0797C65.7961 24.4618 62.6071 20.2635 59.4059 16.629C60.2449 15.7769 61.1038 14.9468 61.9819 14.1396C70.2507 6.55761 77.9787 3.56389 81.4997 5.70338V5.70338ZM56 41.8622C61.5234 41.8622 66.0013 46.5805 66.0013 52.4006C66.0013 58.2207 61.5234 62.939 56 62.939C50.4766 62.939 45.9987 58.2207 45.9987 52.4006C45.9987 46.5805 50.4766 41.8622 56 41.8622V41.8622Z" fill="#00D8FF"/>
</svg>
