<svg width="337" height="331" viewBox="0 0 337 331" fill="none" xmlns="http://www.w3.org/2000/svg">
<rect y="1.76062" width="335.052" height="329.239" rx="5" fill="#262626"/>
<path d="M180.961 15.6928C97.4879 8.51654 23.2733 69.7097 15.9704 151.734C8.66751 233.759 70.941 306.686 154.414 313.862C237.886 321.039 312.101 259.845 319.404 177.821C326.707 95.7962 265.163 22.9318 180.961 15.6928ZM231.565 237.12C231.567 237.12 231.568 237.122 231.567 237.124C228.144 241.324 222.684 242.364 218.411 238.965C184.68 214.311 140.331 205.991 86.133 213.322C80.7145 214.405 76.4948 210.287 75.361 205.635C74.3439 200.318 78.4962 196.178 83.1718 195.068C141.833 187.376 191.339 196.8 228.587 223.902C228.786 224.047 228.999 224.176 229.213 224.3C234.032 227.074 234.167 232.931 231.563 237.116C231.562 237.117 231.563 237.12 231.565 237.12V237.12ZM253.437 197.674C253.437 197.677 253.435 197.68 253.433 197.682C249.164 202.598 242.149 204.247 237.145 200.043C198.401 171.915 136.829 159.148 87.7507 169.933C81.5431 170.864 74.9409 167.32 73.9942 161.211C72.9985 155.116 76.6009 148.675 82.8126 147.697C139.688 136.053 207.198 150.166 251.701 182.507C256.09 185.137 257.702 192.793 253.44 197.666C253.438 197.668 253.437 197.671 253.437 197.674V197.674ZM258.684 156.071C258.684 156.072 258.684 156.073 258.683 156.072C212.609 123.543 131.728 113.614 84.1943 123.808C76.4007 125.382 69.2312 120.268 67.5561 113.327C65.951 105.706 71.1583 98.6231 78.1752 96.973C133.458 85.9425 221.926 96.5715 275.169 134.199C281.654 138.521 283.115 147.651 278.726 154.024C274.458 158.942 265.171 160.378 258.685 156.07C258.684 156.069 258.683 156.07 258.684 156.071V156.071Z" fill="#1ED760"/>
</svg>
