<svg width="50" height="50" viewBox="0 0 100 100" fill="none" xmlns="http://www.w3.org/2000/svg">
<rect width="100" height="100" rx="50" fill="white"/>
<path d="M68.6525 35.8968C65.8651 31.8801 53.2638 31.028 51.841 30.9185L50.2441 30.8333V55.5913C49.8709 55.3364 49.4726 55.1083 49.0536 54.9096C47.5954 54.2943 46.0038 53.9328 44.3745 53.8471C42.7452 53.7613 41.1121 53.953 39.5736 54.4106C33.6504 56.0295 29.8032 60.6549 31.0517 64.7203C31.33 65.5801 31.8165 66.3827 32.4808 67.0779C33.1452 67.7732 33.9733 68.3463 34.9134 68.7615C36.5251 69.4824 38.3277 69.8508 40.1543 69.8326C41.6088 69.8316 43.0541 69.6386 44.437 69.2605C49.765 67.8242 53.3944 63.99 53.2347 60.3019V39.7676C56.4737 40.0391 59.6645 40.6232 62.7438 41.5082C63.1038 41.6244 63.5041 41.6159 63.8567 41.4847C64.2093 41.3534 64.4852 41.1101 64.6238 40.8083C64.7625 40.5064 64.7524 40.1708 64.5958 39.8752C64.4393 39.5796 64.1491 39.3482 63.7891 39.232C60.3458 38.2407 56.7731 37.5991 53.1476 37.321V33.4746C57.982 33.9128 64.7618 35.1543 66.0974 37.1262C69.0009 41.2769 62.7148 46.0849 62.6567 46.1336C62.3927 46.3531 62.2391 46.6492 62.2278 46.9608C62.2165 47.2725 62.3482 47.5758 62.5959 47.8084C62.8435 48.041 63.1881 48.1851 63.5587 48.2109C63.9293 48.2367 64.2975 48.1423 64.5875 47.9472C64.9795 47.6916 72.7465 41.7881 68.6525 35.8968ZM43.4934 66.9478C42.3197 67.3047 41.0725 67.4606 39.8257 67.4063C38.5789 67.3519 37.3577 67.0884 36.2345 66.6313C35.6392 66.3774 35.1135 66.0222 34.691 65.5884C34.2686 65.1545 33.9587 64.6516 33.781 64.1117C32.91 61.2756 35.8861 57.9648 40.4301 56.7354C41.5085 56.4408 42.635 56.2889 43.7692 56.2851C45.1066 56.2635 46.4292 56.5229 47.6164 57.0397C48.2117 57.2937 48.7374 57.6489 49.1599 58.0827C49.5823 58.5166 49.8922 59.0195 50.0699 59.5594C51.028 62.4076 48.0519 65.7184 43.4934 66.9478Z" stroke="#316AD9" stroke-width="2"/>
<mask id="path-3-inside-1_180_17" fill="white">
<path d="M68.782 35.1934C65.9249 31.0736 53.0085 30.1997 51.5502 30.0874L49.9134 30V55.3928C49.5308 55.1314 49.1226 54.8975 48.6932 54.6937C47.1985 54.0626 45.567 53.6919 43.897 53.6039C42.227 53.5159 40.5531 53.7125 38.9761 54.1819C32.9048 55.8423 28.9615 60.5863 30.2412 64.756C30.5264 65.6378 31.0251 66.4609 31.7061 67.174C32.3871 67.8871 33.2358 68.4749 34.1994 68.9007C35.8514 69.6402 37.6991 70.018 39.5713 69.9993C41.0622 69.9984 42.5437 69.8003 43.9611 69.4126C49.4223 67.9394 53.1425 64.0069 52.9788 60.2242V39.1634C56.2988 39.4419 59.5693 40.0409 62.7256 40.9486C63.0946 41.0678 63.5049 41.0592 63.8663 40.9245C64.2277 40.7899 64.5105 40.5404 64.6526 40.2308C64.7947 39.9212 64.7844 39.577 64.6239 39.2738C64.4634 38.9706 64.166 38.7333 63.797 38.6141C60.2676 37.5973 56.6056 36.9393 52.8895 36.6541V32.7091C57.8447 33.1585 64.794 34.4319 66.163 36.4543C69.1391 40.7114 62.6958 45.6427 62.6363 45.6926C62.3656 45.9178 62.2083 46.2215 62.1967 46.5411C62.1851 46.8607 62.3201 47.1719 62.5739 47.4104C62.8278 47.649 63.181 47.7967 63.5608 47.8232C63.9407 47.8497 64.3182 47.7529 64.6154 47.5528C65.0172 47.2906 72.9783 41.2358 68.782 35.1934ZM42.9939 67.0406C41.7909 67.4067 40.5125 67.5666 39.2345 67.5108C37.9565 67.455 36.7049 67.1848 35.5536 66.716C34.9433 66.4555 34.4045 66.0912 33.9715 65.6463C33.5385 65.2013 33.2208 64.6855 33.0387 64.1318C32.1459 61.223 35.1964 57.8273 39.8541 56.5664C40.9594 56.2642 42.1141 56.1083 43.2766 56.1044C44.6475 56.0823 46.0031 56.3484 47.22 56.8785C47.8302 57.1389 48.369 57.5032 48.8021 57.9482C49.2351 58.3931 49.5527 58.909 49.7348 59.4627C50.7169 62.384 47.6664 65.7797 42.9939 67.0406Z"/>
</mask>
<path d="M68.782 35.1934L65.4951 37.4729L65.4966 37.4751L68.782 35.1934ZM51.5502 30.0874L51.8575 26.0992L51.8105 26.0956L51.7635 26.0931L51.5502 30.0874ZM49.9134 30L50.1266 26.0057L45.9134 25.7808V30H49.9134ZM49.9134 55.3928L47.6565 58.6953L53.9134 62.9713V55.3928H49.9134ZM48.6932 54.6937L50.4081 51.08L50.3294 51.0427L50.2492 51.0088L48.6932 54.6937ZM38.9761 54.1819L40.0313 58.0402L40.0743 58.0284L40.1171 58.0157L38.9761 54.1819ZM30.2412 64.756L26.4172 65.9296L26.4261 65.9583L26.4353 65.9869L30.2412 64.756ZM34.1994 68.9007L35.8336 65.2498L35.8249 65.2459L35.8162 65.2421L34.1994 68.9007ZM39.5713 69.9993L39.5687 65.9993L39.5501 65.9994L39.5314 65.9995L39.5713 69.9993ZM43.9611 69.4126L42.9194 65.5506L42.9125 65.5525L42.9057 65.5543L43.9611 69.4126ZM52.9788 60.2242H48.9788V60.3107L48.9825 60.3971L52.9788 60.2242ZM52.9788 39.1634L53.3131 35.1774L48.9788 34.8138V39.1634H52.9788ZM62.7256 40.9486L63.9551 37.1423L63.8934 37.1224L63.8311 37.1044L62.7256 40.9486ZM63.797 38.6141L65.0265 34.8077L64.9657 34.7881L64.9043 34.7704L63.797 38.6141ZM52.8895 36.6541H48.8895V40.3588L52.5834 40.6423L52.8895 36.6541ZM52.8895 32.7091L53.2508 28.7254L48.8895 28.3299V32.7091H52.8895ZM66.163 36.4543L62.8506 38.6966L62.8674 38.7215L62.8847 38.7462L66.163 36.4543ZM62.6363 45.6926L65.1945 48.7676L65.2008 48.7623L65.2072 48.757L62.6363 45.6926ZM64.6154 47.5528L62.4295 44.2029L62.4054 44.2186L62.3815 44.2347L64.6154 47.5528ZM42.9939 67.0406L41.9517 63.1787L41.8903 63.1953L41.8294 63.2138L42.9939 67.0406ZM35.5536 66.716L33.9834 70.3949L34.0141 70.4081L34.0451 70.4207L35.5536 66.716ZM33.0387 64.1318L29.2148 65.3055L29.2265 65.3435L29.2389 65.3812L33.0387 64.1318ZM39.8541 56.5664L40.8993 60.4274L40.9089 60.4248L39.8541 56.5664ZM43.2766 56.1044L43.29 60.1044L43.3156 60.1043L43.3412 60.1039L43.2766 56.1044ZM47.22 56.8785L45.6225 60.5456L45.6361 60.5516L45.6498 60.5574L47.22 56.8785ZM49.7348 59.4627L45.9349 60.7121L45.9391 60.7247L45.9433 60.7373L49.7348 59.4627ZM72.0689 32.9139C70.6735 30.9017 68.427 29.7103 66.5921 28.9664C64.6286 28.1704 62.4274 27.6123 60.4198 27.2141C56.3898 26.4147 52.5774 26.1547 51.8575 26.0992L51.243 34.0756C51.9814 34.1325 55.3564 34.3656 58.8633 35.0612C60.6243 35.4105 62.279 35.8503 63.5865 36.3803C64.235 36.6432 64.7232 36.8987 65.0669 37.1271C65.4201 37.3618 65.5105 37.4952 65.4951 37.4729L72.0689 32.9139ZM51.7635 26.0931L50.1266 26.0057L49.7001 33.9943L51.337 34.0817L51.7635 26.0931ZM45.9134 30V55.3928H53.9134V30H45.9134ZM52.1703 52.0904C51.6111 51.7082 51.0212 51.3709 50.4081 51.08L46.9782 58.3075C47.2241 58.4241 47.4506 58.5546 47.6565 58.6953L52.1703 52.0904ZM50.2492 51.0088C48.3142 50.1917 46.2261 49.721 44.1075 49.6094L43.6866 57.5984C44.908 57.6627 46.0828 57.9335 47.1371 58.3787L50.2492 51.0088ZM44.1075 49.6094C41.9887 49.4978 39.8573 49.7462 37.8351 50.3481L40.1171 58.0157C41.2489 57.6789 42.4654 57.534 43.6866 57.5984L44.1075 49.6094ZM37.9209 50.3236C34.2018 51.3407 30.9487 53.3459 28.7706 55.9775C26.5985 58.6018 25.2719 62.1979 26.4172 65.9296L34.0651 63.5824C33.9307 63.1443 33.9359 62.2836 34.9335 61.0783C35.9249 59.8805 37.6791 58.6835 40.0313 58.0402L37.9209 50.3236ZM26.4353 65.9869C26.9175 67.4778 27.7437 68.8166 28.8133 69.9366L34.5988 64.4114C34.3064 64.1053 34.1353 63.7979 34.0471 63.525L26.4353 65.9869ZM28.8133 69.9366C29.881 71.0546 31.1723 71.9362 32.5826 72.5594L35.8162 65.2421C35.2994 65.0136 34.8931 64.7196 34.5988 64.4114L28.8133 69.9366ZM32.5652 72.5517C34.7619 73.5349 37.1828 74.0234 39.6113 73.9991L39.5314 65.9995C38.2154 66.0127 36.9409 65.7454 35.8336 65.2498L32.5652 72.5517ZM39.574 73.9993C41.4153 73.9981 43.2511 73.7538 45.0166 73.2708L42.9057 65.5543C41.8363 65.8469 40.7091 65.9986 39.5687 65.9993L39.574 73.9993ZM45.0029 73.2745C48.3526 72.371 51.3035 70.6811 53.4493 68.4707C55.5711 66.2851 57.1174 63.3409 56.975 60.0513L48.9825 60.3971C49.0038 60.8902 48.7719 61.8036 47.7093 62.8983C46.6706 63.9681 45.0308 64.9811 42.9194 65.5506L45.0029 73.2745ZM56.9788 60.2242V39.1634H48.9788V60.2242H56.9788ZM52.6444 43.1494C55.7071 43.4063 58.7192 43.9586 61.62 44.7928L63.8311 37.1044C60.4195 36.1233 56.8904 35.4775 53.3131 35.1774L52.6444 43.1494ZM61.4961 44.755C62.7168 45.1493 64.0524 45.1237 65.2626 44.6729L62.47 37.1762C62.9575 36.9946 63.4724 36.9864 63.9551 37.1423L61.4961 44.755ZM65.2626 44.6729C66.4734 44.2219 67.6446 43.3014 68.2881 41.8992L61.0172 38.5624C61.3765 37.7794 61.982 37.358 62.47 37.1762L65.2626 44.6729ZM68.2881 41.8992C68.9536 40.4491 68.8971 38.7967 68.1593 37.4027L61.0885 41.1449C60.6716 40.3572 60.6358 39.3933 61.0172 38.5624L68.2881 41.8992ZM68.1593 37.4027C67.4466 36.0561 66.2465 35.2018 65.0265 34.8077L62.5675 42.4204C62.0855 42.2648 61.4802 41.885 61.0885 41.1449L68.1593 37.4027ZM64.9043 34.7704C61.1096 33.6772 57.179 32.9715 53.1956 32.6658L52.5834 40.6423C56.0323 40.9071 59.4256 41.5174 62.6897 42.4578L64.9043 34.7704ZM56.8895 36.6541V32.7091H48.8895V36.6541H56.8895ZM52.5282 36.6927C54.8701 36.9051 57.6339 37.3098 59.9076 37.8741C61.052 38.1581 61.9551 38.4541 62.5795 38.7325C63.3555 39.0785 63.1652 39.1614 62.8506 38.6966L69.4755 34.2121C68.4763 32.736 66.9039 31.9014 65.8371 31.4258C64.6186 30.8825 63.218 30.4529 61.8345 30.1096C59.0526 29.4192 55.8641 28.9624 53.2508 28.7254L52.5282 36.6927ZM62.8847 38.7462C62.9555 38.8474 62.9606 38.8558 62.9362 38.9948C62.8895 39.2605 62.7063 39.7245 62.2667 40.3494C61.3779 41.6125 60.1935 42.5207 60.0654 42.6282L65.2072 48.757C65.1386 48.8146 67.2056 47.2322 68.8094 44.953C70.3026 42.8308 72.4554 38.4739 69.4413 34.1625L62.8847 38.7462ZM60.0781 42.6176C59.0315 43.4883 58.2566 44.8174 58.1993 46.396L66.1941 46.6862C66.16 47.6256 65.6998 48.3472 65.1945 48.7676L60.0781 42.6176ZM58.1993 46.396C58.1418 47.9802 58.8239 49.3753 59.8345 50.3251L65.3134 44.4958C65.8164 44.9685 66.2284 45.7412 66.1941 46.6862L58.1993 46.396ZM59.8345 50.3251C60.8242 51.2553 62.0745 51.7293 63.2826 51.8135L63.839 43.8329C64.2875 43.8642 64.8313 44.0427 65.3134 44.4958L59.8345 50.3251ZM63.2826 51.8135C64.4919 51.8978 65.7649 51.6009 66.8493 50.8708L62.3815 44.2347C62.8714 43.9049 63.3895 43.8016 63.839 43.8329L63.2826 51.8135ZM66.8013 50.9027C67.3431 50.5491 69.8764 48.6062 71.7636 45.7408C73.6913 42.8138 75.5168 37.8785 72.0674 32.9117L65.4966 37.4751C66.2435 38.5506 66.1866 39.6639 65.0824 41.3405C63.9377 43.0787 62.2895 44.2943 62.4295 44.2029L66.8013 50.9027ZM41.8294 63.2138C41.0674 63.4457 40.2422 63.551 39.4089 63.5146L39.0602 71.507C40.7829 71.5822 42.5143 71.3676 44.1583 70.8673L41.8294 63.2138ZM39.4089 63.5146C38.5755 63.4782 37.7763 63.3022 37.062 63.0113L34.0451 70.4207C35.6334 71.0674 37.3376 71.4318 39.0602 71.507L39.4089 63.5146ZM37.1237 63.0371C36.9664 62.9699 36.8772 62.8968 36.8382 62.8566L31.1048 68.4359C31.9317 69.2857 32.9203 69.9412 33.9834 70.3949L37.1237 63.0371ZM36.8382 62.8566C36.8194 62.8374 36.8144 62.8281 36.8169 62.8322C36.8195 62.8365 36.8289 62.853 36.8386 62.8824L29.2389 65.3812C29.6232 66.5499 30.276 67.5842 31.1048 68.4359L36.8382 62.8566ZM36.8627 62.958C36.97 63.3076 36.6706 63.1486 37.338 62.4071C37.9746 61.6999 39.1867 60.891 40.8993 60.4274L38.8088 52.7053C35.8638 53.5026 33.2218 55.022 31.3919 57.0551C29.5929 59.0538 28.2147 62.0472 29.2148 65.3055L36.8627 62.958ZM40.9089 60.4248C41.6699 60.2167 42.4742 60.1071 43.29 60.1044L43.2632 52.1045C41.754 52.1095 40.2489 52.3116 38.7992 52.7079L40.9089 60.4248ZM43.3412 60.1039C44.16 60.0907 44.947 60.2514 45.6225 60.5456L48.8174 53.2113C47.0592 52.4454 45.1349 52.0739 43.212 52.105L43.3412 60.1039ZM45.6498 60.5574C45.8072 60.6245 45.8963 60.6977 45.9354 60.7379L51.6687 55.1585C50.8418 54.3088 49.8533 53.6533 48.7901 53.1995L45.6498 60.5574ZM45.9354 60.7379C45.9541 60.7571 45.9592 60.7664 45.9566 60.7623C45.954 60.758 45.9446 60.7415 45.9349 60.7121L53.5347 58.2133C53.1504 57.0446 52.4976 56.0102 51.6687 55.1585L45.9354 60.7379ZM45.9433 60.7373C45.8222 60.3771 46.1402 60.4939 45.5002 61.2112C44.8814 61.9047 43.6762 62.7134 41.9517 63.1787L44.036 70.9024C46.9841 70.1069 49.6404 68.5873 51.4694 66.5374C53.2773 64.5112 54.6295 61.4696 53.5263 58.188L45.9433 60.7373Z" fill="#316AD9" mask="url(#path-3-inside-1_180_17)"/>
<rect x="12" y="12" width="76" height="76" rx="38" stroke="#316AD9" stroke-width="4"/>
<path d="M74.8182 37.1146H74.8187C75.2285 37.1145 75.6456 37.0302 76.0353 36.8542C76.0356 36.8541 76.0358 36.854 76.0361 36.8539L92.3992 29.4683L92.3999 29.468C92.8133 29.2813 93.2092 28.9841 93.5092 28.5676C93.813 28.1457 94 27.6232 94 27.0572C94 26.4913 93.813 25.9687 93.5092 25.5469C93.2092 25.1304 92.8133 24.8332 92.3999 24.6465L92.3992 24.6461L76.0355 17.2603C76.0354 17.2603 76.0354 17.2602 76.0353 17.2602C75.6336 17.0789 75.2025 16.9949 74.7802 17.0002C74.3578 17.0056 73.9277 17.1006 73.529 17.294C73.1303 17.4873 72.7513 17.7859 72.4655 18.1968C72.1764 18.6127 72.0001 19.1219 72 19.6709V19.6713V34.4431C72 35.2936 72.4146 36.0074 72.9709 36.464C73.5161 36.9114 74.1846 37.1146 74.8182 37.1146Z" fill="#316AD9" stroke="white" stroke-width="4"/>
</svg>
