<svg width="106" height="105" viewBox="0 0 106 105" fill="none" xmlns="http://www.w3.org/2000/svg">
<path d="M0 52.5V105H106V0H0V52.5Z" fill="#007ACC"/>
<path d="M23.4405 52.8486L23.407 57.1483H37.2035V95.9819H46.963V57.1483H60.7596V52.9319C60.7596 50.5981 60.709 48.6482 60.642 48.5982C60.5914 48.5317 52.1955 48.4981 42.0162 48.5149L23.4915 48.565L23.4409 52.8482L23.4405 52.8486Z" fill="white"/>
<path d="M85.5316 48.4427C88.2234 49.1096 90.2763 50.2925 92.1607 52.226C93.1367 53.2596 94.5834 55.143 94.7014 55.593C94.7345 55.7263 90.1248 58.793 87.3319 60.5095C87.2309 60.5764 86.8268 60.1428 86.3725 59.4759C85.0099 57.5096 83.5797 56.6594 81.3922 56.5097C78.1791 56.2927 76.1092 57.9596 76.1261 60.7425C76.1261 61.5595 76.2437 62.0427 76.5804 62.7096C77.2872 64.1595 78.5993 65.0262 82.7218 66.7927C90.3099 70.0264 93.5569 72.1596 95.5763 75.1927C97.8309 78.5765 98.3356 83.9762 96.8044 87.9929C95.1221 92.3594 90.9496 95.3265 85.0769 96.3096C83.26 96.6262 78.953 96.5762 77.0011 96.2263C72.7445 95.4762 68.7061 93.393 66.216 90.6597C65.24 89.5929 63.3387 86.8096 63.4567 86.6094C63.5072 86.543 63.9444 86.2764 64.4322 85.9929C64.9034 85.7263 66.6872 84.7092 68.3695 83.7428L71.4149 81.9927L72.0543 82.9262C72.9462 84.276 74.8976 86.1262 76.0756 86.7427C79.4573 88.5097 84.1014 88.2595 86.3895 86.2259C87.3655 85.3429 87.7692 84.4261 87.7692 83.0759C87.7692 81.8594 87.6176 81.3262 86.9783 80.4099C86.1543 79.243 84.4716 78.2595 79.6929 76.2099C74.2248 73.8761 71.8692 72.4262 69.7156 70.1261C68.4705 68.793 67.2925 66.6594 66.8048 64.8761C66.4011 63.3929 66.2996 59.6761 66.6197 58.1762C67.7472 52.9426 71.7346 49.293 77.4888 48.2094C79.3563 47.8595 83.6973 47.9928 85.5316 48.4431V48.4427Z" fill="white"/>
</svg>
