<svg width="48" height="48" viewBox="0 0 48 48" fill="none" xmlns="http://www.w3.org/2000/svg">
<path d="M6.69203 39.1476C3.1473 35.1007 1 29.8023 1 24C1 11.2975 11.2975 1 24 1C36.7025 1 47 11.2975 47 24C47 36.7025 36.7025 47 24 47C18.5663 47 13.5752 45.117 9.6396 41.9672L6.69203 39.1476Z" stroke="#C4C4C4" stroke-width="2" stroke-linejoin="round"/>
<path d="M24.5988 29.2279C27.1554 29.2279 29.2279 27.1554 29.2279 24.5988C29.2279 22.0422 27.1554 19.9697 24.5988 19.9697C22.0422 19.9697 19.9697 22.0422 19.9697 24.5988C19.9697 27.1554 22.0422 29.2279 24.5988 29.2279Z" fill="#C4C4C4"/>
<path d="M24.5758 10.7576C20.9109 10.7576 17.3962 12.2134 14.8048 14.8048C12.2134 17.3962 10.7576 20.9109 10.7576 24.5757H15.3636C15.3636 22.1325 16.3342 19.7894 18.0618 18.0618C19.7894 16.3342 22.1326 15.3636 24.5758 15.3636V10.7576Z" fill="#C4C4C4"/>
<path d="M10.4485 35.8477C7.67789 32.6813 6 28.5378 6 24C6 14.0589 14.0589 6 24 6C33.9411 6 42 14.0589 42 24C42 33.9411 33.9411 42 24 42C19.7507 42 15.8477 40.5288 12.7687 38.0671L10.4485 35.8477Z" stroke="#C4C4C4" stroke-width="2" stroke-linejoin="round"/>
</svg>
