<svg xmlns="http://www.w3.org/2000/svg" width="48" height="48" fill="none" viewBox="0 0 48 48"><path stroke="#C4C4C4" stroke-linecap="round" stroke-linejoin="round" stroke-width="2" d="M25 19.2162C27.8995 19.2162 30.25 16.9292 30.25 14.1081C30.25 11.287 27.8995 9 25 9C22.1005 9 19.75 11.287 19.75 14.1081C19.75 16.9292 22.1005 19.2162 25 19.2162Z"/><path stroke="#C4C4C4" stroke-linecap="round" stroke-linejoin="round" stroke-width="2" d="M10 35.9999C10 29.5513 16.0443 24.3242 23.5 24.3242"/><path stroke="#C4C4C4" stroke-width="2" d="M32.5 34.7568C34.9853 34.7568 37 32.7965 37 30.3784C37 27.9603 34.9853 26 32.5 26C30.0147 26 28 27.9603 28 30.3784C28 32.7965 30.0147 34.7568 32.5 34.7568Z"/><path stroke="#C4C4C4" stroke-linecap="round" stroke-linejoin="round" stroke-width="2" d="M36.25 33.2974L39.25 35.4866"/><path stroke="#C4C4C4" stroke-linejoin="round" stroke-width="2" d="M6.69203 39.1476C3.1473 35.1007 1 29.8023 1 24C1 11.2975 11.2975 1 24 1C36.7025 1 47 11.2975 47 24C47 36.7025 36.7025 47 24 47C18.5663 47 13.5752 45.117 9.6396 41.9672L6.69203 39.1476Z"/></svg>