<svg xmlns="http://www.w3.org/2000/svg" width="44" height="44" fill="none" viewBox="0 0 44 44"><path fill="#316AD9" d="M34.5268 10.9941C32.7035 8.09005 24.4609 7.47405 23.5303 7.39485L22.4858 7.33325V25.2324C22.2416 25.0482 21.9812 24.8833 21.7071 24.7396C20.7533 24.2948 19.7122 24.0334 18.6465 23.9714C17.5808 23.9094 16.5125 24.048 15.5062 24.3788C11.6318 25.5492 9.11533 28.8932 9.93199 31.8324C10.114 32.4541 10.4322 33.0343 10.8668 33.5369C11.3014 34.0396 11.843 34.4539 12.4579 34.754C13.5122 35.2753 14.6912 35.5416 15.886 35.5284C16.8374 35.5278 17.7828 35.3882 18.6873 35.1148C22.1724 34.0764 24.5464 31.3044 24.442 28.638V13.7925C26.5606 13.9888 28.6477 14.411 30.6619 15.0509C30.8973 15.1349 31.1592 15.1288 31.3898 15.0339C31.6204 14.939 31.8009 14.7631 31.8916 14.5449C31.9823 14.3266 31.9757 14.084 31.8733 13.8703C31.7709 13.6565 31.5811 13.4893 31.3456 13.4053C29.0933 12.6885 26.7564 12.2247 24.385 12.0237V9.24285C27.5472 9.55965 31.9818 10.4573 32.8554 11.8829C34.7547 14.8837 30.6429 18.3596 30.6049 18.3948C30.4322 18.5536 30.3318 18.7676 30.3244 18.9929C30.317 19.2182 30.4031 19.4376 30.5651 19.6057C30.7271 19.7739 30.9525 19.878 31.1949 19.8967C31.4373 19.9154 31.6782 19.8471 31.8679 19.706C32.1243 19.5212 37.2046 15.2533 34.5268 10.9941ZM18.0701 33.4428C17.3024 33.7009 16.4866 33.8136 15.6711 33.7743C14.8555 33.735 14.0568 33.5445 13.3221 33.214C12.9327 33.0305 12.5888 32.7736 12.3125 32.46C12.0362 32.1464 11.8334 31.7828 11.7172 31.3924C11.1475 29.342 13.0942 26.9484 16.0664 26.0596C16.7718 25.8466 17.5087 25.7368 18.2505 25.734C19.1253 25.7184 19.9904 25.906 20.767 26.2796C21.1564 26.4632 21.5003 26.7201 21.7766 27.0337C22.0529 27.3473 22.2556 27.7109 22.3718 28.1012C22.9986 30.1604 21.0519 32.554 18.0701 33.4428Z"/><path stroke="#316AD9" stroke-linejoin="round" stroke-width="2" d="M6.19462 35.8276C2.95953 32.133 1 27.2965 1 22C1 10.402 10.402 1 22 1C33.598 1 43 10.402 43 22C43 33.598 33.598 43 22 43C17.0401 43 12.4842 41.2817 8.89124 38.4071L6.19462 35.8276Z"/></svg>