<svg width="48" height="48" viewBox="0 0 48 48" fill="none" xmlns="http://www.w3.org/2000/svg">
<path d="M6.69203 39.1476C3.1473 35.1007 1 29.8023 1 24C1 11.2975 11.2975 1 24 1C36.7025 1 47 11.2975 47 24C47 36.7025 36.7025 47 24 47C18.5663 47 13.5752 45.117 9.6396 41.9672L6.69203 39.1476Z" stroke="#C4C4C4" stroke-width="2" stroke-linejoin="round"/>
<path d="M14.4 16.8H12V33.6C12 34.92 13.08 36 14.4 36H31.2V33.6H14.4V16.8ZM33.6 12H19.2C17.88 12 16.8 13.08 16.8 14.4V28.8C16.8 30.12 17.88 31.2 19.2 31.2H33.6C34.92 31.2 36 30.12 36 28.8V14.4C36 13.08 34.92 12 33.6 12ZM33.6 28.8H19.2V14.4H33.6V28.8ZM24 16.2V27L31.2 21.6L24 16.2Z" fill="#C4C4C4"/>
</svg>
