<svg width="48" height="48" viewBox="0 0 48 48" fill="none" xmlns="http://www.w3.org/2000/svg">
<path d="M37.6652 11.9936C35.6762 8.8256 26.6843 8.1536 25.6691 8.0672L24.5296 8V27.5264C24.2632 27.3254 23.9791 27.1455 23.6801 26.9888C22.6396 26.5035 21.5038 26.2184 20.3412 26.1508C19.1786 26.0831 18.0133 26.2343 16.9155 26.5952C12.6889 27.872 9.94363 31.52 10.8345 34.7264C11.0331 35.4045 11.3802 36.0375 11.8543 36.5858C12.3284 37.1342 12.9193 37.5861 13.5901 37.9136C14.7402 38.4822 16.0264 38.7728 17.3298 38.7584C18.3677 38.7576 19.399 38.6054 20.3858 38.3072C24.1877 37.1744 26.7775 34.1504 26.6636 31.2416V15.0464C28.9748 15.2606 31.2517 15.7212 33.4489 16.4192C33.7058 16.5109 33.9915 16.5042 34.2431 16.4007C34.4947 16.2972 34.6916 16.1053 34.7905 15.8672C34.8894 15.6291 34.8822 15.3644 34.7705 15.1313C34.6588 14.8981 34.4517 14.7157 34.1948 14.624C31.7378 13.8421 29.1885 13.3361 26.6014 13.1168V10.0832C30.0511 10.4288 34.8889 11.408 35.8419 12.9632C37.9138 16.2368 33.4282 20.0288 33.3868 20.0672C33.1984 20.2403 33.0888 20.4739 33.0808 20.7197C33.0727 20.9654 33.1667 21.2047 33.3434 21.3882C33.5201 21.5716 33.766 21.6852 34.0304 21.7056C34.2948 21.7259 34.5576 21.6515 34.7646 21.4976C35.0443 21.296 40.5865 16.64 37.6652 11.9936ZM19.7125 36.4832C18.875 36.7647 17.985 36.8877 17.0953 36.8448C16.2057 36.8019 15.3343 36.5941 14.5328 36.2336C14.108 36.0333 13.7329 35.7532 13.4314 35.411C13.13 35.0688 12.9088 34.6722 12.7821 34.2464C12.1605 32.0096 14.2842 29.3984 17.5267 28.4288C18.2961 28.1964 19.1 28.0766 19.9093 28.0736C20.8636 28.0566 21.8074 28.2612 22.6545 28.6688C23.0794 28.8691 23.4545 29.1492 23.7559 29.4914C24.0573 29.8336 24.2785 30.2302 24.4052 30.656C25.089 32.9024 22.9653 35.5136 19.7125 36.4832Z" fill="#C4C4C4"/>
<path d="M6.69203 39.1476C3.1473 35.1007 1 29.8023 1 24C1 11.2975 11.2975 1 24 1C36.7025 1 47 11.2975 47 24C47 36.7025 36.7025 47 24 47C18.5663 47 13.5752 45.117 9.6396 41.9672L6.69203 39.1476Z" stroke="#C4C4C4" stroke-width="2" stroke-linejoin="round"/>
</svg>
