<svg width="20" height="19" viewBox="0 0 20 19" fill="none" xmlns="http://www.w3.org/2000/svg">
<path d="M2.69231 14.0384C4.58974 14.0384 6.10256 13.3077 7.23077 11.8461C7.23077 11.7436 7.16667 11.6538 7.03846 11.5769L6.30769 10.1154C5.97436 10.8077 5.48077 11.3654 4.82692 11.7884C4.17308 12.2115 3.46154 12.4231 2.69231 12.4231H0.807692C0.602564 12.4231 0.416667 12.5064 0.25 12.6731C0.0833333 12.8397 0 13.0256 0 13.2308C0 13.4359 0.0833333 13.6218 0.25 13.7884C0.416667 13.9551 0.602564 14.0384 0.807692 14.0384H2.69231ZM17 0.346135C16.5897 -0.0128393 16.2051 -0.0128393 15.8462 0.346135C15.4615 0.73075 15.4615 1.11537 15.8462 1.49998L16.8846 2.5769H13.6923C11.8205 2.5769 10.3205 3.30767 9.19231 4.76921C9.19231 4.84613 9.24359 4.93588 9.34615 5.03844L10.0769 6.49998C10.4103 5.80767 10.9038 5.24998 11.5577 4.8269C12.2115 4.40383 12.9231 4.19229 13.6923 4.19229H16.8846L15.8462 5.26921C15.4615 5.65383 15.4615 6.03844 15.8462 6.42306C16 6.5769 16.1923 6.65383 16.4231 6.65383C16.6026 6.65383 16.7949 6.5769 17 6.42306L19.4615 3.96152C19.7949 3.5769 19.7949 3.19229 19.4615 2.80767L17 0.346135ZM17 10.1923C16.5897 9.83331 16.2051 9.83331 15.8462 10.1923C15.4615 10.5769 15.4615 10.9615 15.8462 11.3461L16.8846 12.4231H13.6923C12.9231 12.4231 12.2051 12.2115 11.5385 11.7884C10.8718 11.3654 10.359 10.8077 10 10.1154L9.11539 8.30767L8.19231 6.49998L7.80769 5.76921C7.34615 4.79485 6.65385 4.01921 5.73077 3.44229C4.80769 2.86537 3.79487 2.5769 2.69231 2.5769H0.807692C0.602564 2.5769 0.416667 2.66024 0.25 2.8269C0.0833333 2.99357 0 3.17947 0 3.3846C0 3.58972 0.0833333 3.77562 0.25 3.94229C0.416667 4.10896 0.602564 4.19229 0.807692 4.19229H2.69231C4.33333 4.19229 5.5641 4.96152 6.38462 6.49998L7.30769 8.30767L8.19231 10.1154L8.61539 10.8461C9.12821 11.8205 9.83974 12.5961 10.75 13.1731C11.6603 13.75 12.6667 14.0384 13.7692 14.0384H17L15.9231 15.1154C15.5385 15.5 15.5385 15.8846 15.9231 16.2692C16.0769 16.4231 16.2692 16.5 16.5 16.5C16.7051 16.5 16.8974 16.4231 17.0769 16.2692L19.5385 13.8077C19.8718 13.4231 19.8718 13.0384 19.5385 12.6538L17 10.1923Z" fill="black"/>
</svg>
