<svg xmlns="http://www.w3.org/2000/svg" width="20" height="24" fill="none" viewBox="0 0 20 24"><path fill="#000" d="M1 0C1.26522 0 1.51957 0.105357 1.70711 0.292893C1.89464 0.48043 2 0.734784 2 1V9.52687L16.5481 0.819375C16.8841 0.614977 17.2689 0.50459 17.6622 0.499752C18.0554 0.494914 18.4428 0.595804 18.7838 0.791875C19.5338 1.21687 20 2.03938 20 2.9375V21.0625C20 21.9606 19.5338 22.7831 18.7838 23.2081C18.4427 23.404 18.0554 23.5048 17.6621 23.4998C17.2688 23.4949 16.8841 23.3844 16.5481 23.18L2 14.4731V23C2 23.2652 1.89464 23.5196 1.70711 23.7071C1.51957 23.8946 1.26522 24 1 24C0.734783 24 0.480429 23.8946 0.292892 23.7071C0.105356 23.5196 0 23.2652 0 23V1C0 0.734784 0.105356 0.48043 0.292892 0.292893C0.480429 0.105357 0.734783 0 1 0Z"/></svg>