<svg width="20" height="20" viewBox="0 0 20 24" fill="none" xmlns="http://www.w3.org/2000/svg">
<path d="M19 0C18.7348 0 18.4804 0.105357 18.2929 0.292893C18.1054 0.48043 18 0.734784 18 1V9.52687L3.45187 0.819375C3.11585 0.614977 2.7311 0.50459 2.33782 0.499752C1.94455 0.494914 1.5572 0.595804 1.21625 0.791875C0.46625 1.21687 0 2.03938 0 2.9375V21.0625C0 21.9606 0.46625 22.7831 1.21625 23.2081C1.55727 23.404 1.94465 23.5048 2.33791 23.4998C2.73117 23.4949 3.11589 23.3844 3.45187 23.18L18 14.4731V23C18 23.2652 18.1054 23.5196 18.2929 23.7071C18.4804 23.8946 18.7348 24 19 24C19.2652 24 19.5196 23.8946 19.7071 23.7071C19.8946 23.5196 20 23.2652 20 23V1C20 0.734784 19.8946 0.48043 19.7071 0.292893C19.5196 0.105357 19.2652 0 19 0Z" fill="black"/>
</svg>
