<svg width="16" height="16" viewBox="0 0 14 14" fill="none" xmlns="http://www.w3.org/2000/svg">
<path d="M0.636373 14C0.467596 14 0.305732 13.9385 0.186389 13.8291C0.0670463 13.7197 0 13.5714 0 13.4167V0.583238C1.89327e-05 0.481871 0.0288536 0.382258 0.0836619 0.294217C0.13847 0.206177 0.21736 0.132748 0.312556 0.0811675C0.407753 0.0295872 0.515969 0.00163617 0.626538 6.96753e-05C0.737108 -0.00149682 0.846215 0.0233753 0.943104 0.0722342L13.6706 6.48895C13.7703 6.5393 13.8535 6.61328 13.9115 6.70317C13.9694 6.79305 14 6.89554 14 6.99995C14 7.10436 13.9694 7.20685 13.9115 7.29673C13.8535 7.38662 13.7703 7.4606 13.6706 7.51095L0.943104 13.9277C0.849144 13.9751 0.743633 14 0.636373 14Z" fill="white"/>
</svg>
