<svg xmlns="http://www.w3.org/2000/svg" width="48" height="48" fill="none" viewBox="0 0 48 48"><path fill="#000" d="M24 45C18.4305 45 13.089 42.7875 9.15076 38.8492C5.21249 34.911 3 29.5695 3 24C3 18.4305 5.21249 13.089 9.15076 9.15076C13.089 5.21249 18.4305 3 24 3C29.5695 3 34.911 5.21249 38.8492 9.15076C42.7875 13.089 45 18.4305 45 24C45 29.5695 42.7875 34.911 38.8492 38.8492C34.911 42.7875 29.5695 45 24 45ZM24 48C30.3652 48 36.4697 45.4714 40.9706 40.9706C45.4714 36.4697 48 30.3652 48 24C48 17.6348 45.4714 11.5303 40.9706 7.02944C36.4697 2.52856 30.3652 0 24 0C17.6348 0 11.5303 2.52856 7.02944 7.02944C2.52856 11.5303 0 17.6348 0 24C0 30.3652 2.52856 36.4697 7.02944 40.9706C11.5303 45.4714 17.6348 48 24 48Z"/><path fill="#000" d="M19.6364 31C19.4676 31 19.3057 30.9385 19.1864 30.8291C19.067 30.7197 19 30.5714 19 30.4167V17.5832C19 17.4819 19.0289 17.3823 19.0837 17.2942C19.1385 17.2062 19.2174 17.1327 19.3126 17.0812C19.4078 17.0296 19.516 17.0016 19.6265 17.0001C19.7371 16.9985 19.8462 17.0234 19.9431 17.0722L32.6706 23.4889C32.7703 23.5393 32.8535 23.6133 32.9115 23.7032C32.9694 23.7931 33 23.8955 33 24C33 24.1044 32.9694 24.2068 32.9115 24.2967C32.8535 24.3866 32.7703 24.4606 32.6706 24.511L19.9431 30.9277C19.8491 30.9751 19.7436 31 19.6364 31Z"/></svg>