<svg width="25" height="30" viewBox="0 0 256 256" fill="none" xmlns="http://www.w3.org/2000/svg">
<path d="M144 192C144 194.122 143.157 196.157 141.657 197.657C140.157 199.157 138.122 200 136 200H40C37.8783 200 35.8434 199.157 34.3431 197.657C32.8429 196.157 32 194.122 32 192C32 189.878 32.8429 187.843 34.3431 186.343C35.8434 184.843 37.8783 184 40 184H136C138.122 184 140.157 184.843 141.657 186.343C143.157 187.843 144 189.878 144 192ZM40 72H216C218.122 72 220.157 71.1571 221.657 69.6569C223.157 68.1566 224 66.1217 224 64C224 61.8783 223.157 59.8434 221.657 58.3431C220.157 56.8429 218.122 56 216 56H40C37.8783 56 35.8434 56.8429 34.3431 58.3431C32.8429 59.8434 32 61.8783 32 64C32 66.1217 32.8429 68.1566 34.3431 69.6569C35.8434 71.1571 37.8783 72 40 72ZM136 120H40C37.8783 120 35.8434 120.843 34.3431 122.343C32.8429 123.843 32 125.878 32 128C32 130.122 32.8429 132.157 34.3431 133.657C35.8434 135.157 37.8783 136 40 136H136C138.122 136 140.157 135.157 141.657 133.657C143.157 132.157 144 130.122 144 128C144 125.878 143.157 123.843 141.657 122.343C140.157 120.843 138.122 120 136 120ZM244.24 153.216L180.24 113.216C179.029 112.459 177.638 112.04 176.21 112.003C174.782 111.965 173.371 112.311 172.122 113.003C170.873 113.695 169.832 114.709 169.107 115.94C168.382 117.17 168 118.572 168 120V200C168 201.428 168.382 202.83 169.107 204.06C169.832 205.291 170.873 206.305 172.122 206.997C173.371 207.689 174.782 208.035 176.21 207.997C177.638 207.96 179.029 207.541 180.24 206.784L244.24 166.784C245.391 166.065 246.339 165.065 246.997 163.878C247.655 162.691 248 161.357 248 160C248 158.643 247.655 157.309 246.997 156.122C246.339 154.935 245.391 153.935 244.24 153.216Z" fill="black"/>
</svg>
