<svg width="18" height="17" viewBox="0 0 18 17" fill="none" xmlns="http://www.w3.org/2000/svg">
<g clip-path="url(#clip0_2_19)">
<path d="M9.37294 0.599169C9.26481 0.514868 9.13162 0.469086 8.99452 0.469086C8.85741 0.469086 8.72422 0.514868 8.61609 0.599169L-0.140625 7.42721L0.616828 8.38515L1.6875 7.55031V15.0938C1.68814 15.4168 1.81675 15.7264 2.04518 15.9548C2.2736 16.1833 2.58322 16.3119 2.90625 16.3125H15.0938C15.4168 16.3119 15.7264 16.1833 15.9548 15.9548C16.1832 15.7264 16.3119 15.4168 16.3125 15.0938V7.55579L17.3832 8.39064L18.1406 7.4327L9.37294 0.599169ZM10.2188 15.0938H7.78125V10.2188H10.2188V15.0938ZM11.4375 15.0938V10.2188C11.4372 9.89563 11.3087 9.58582 11.0802 9.35733C10.8517 9.12884 10.5419 9.00033 10.2188 9.00001H7.78125C7.45812 9.00033 7.14831 9.12884 6.91982 9.35733C6.69133 9.58582 6.56282 9.89563 6.5625 10.2188V15.0938H2.90625V6.60029L9 1.85326L15.0938 6.60639V15.0938H11.4375Z" fill="black"/>
</g>
<defs>
<clipPath id="clip0_2_19">
<rect width="18" height="17" fill="white"/>
</clipPath>
</defs>
</svg>
