<svg width="26" height="29" viewBox="0 0 26 29" fill="none" xmlns="http://www.w3.org/2000/svg">
<g clip-path="url(#clip0_70_18)">
<path d="M2.88889 28.8893H23.1111C23.8773 28.8893 24.6121 28.5849 25.1539 28.0432C25.6956 27.5014 26 26.7666 26 26.0004V13.0004C26.0011 12.8103 25.9647 12.6219 25.8928 12.4459C25.8209 12.2699 25.715 12.1098 25.5811 11.9749L14.0256 0.419302C13.7549 0.150272 13.3888 -0.000732422 13.0072 -0.000732422C12.6256 -0.000732422 12.2595 0.150272 11.9889 0.419302L0.433333 11.9749C0.29685 12.1086 0.188272 12.2682 0.113888 12.4442C0.0395036 12.6203 0.000793361 12.8093 0 13.0004V26.0004C0 26.7666 0.304364 27.5014 0.846136 28.0432C1.38791 28.5849 2.12271 28.8893 2.88889 28.8893ZM10.1111 26.0004V18.7782H15.8889V26.0004H10.1111ZM2.88889 13.5926L13 3.48152L23.1111 13.5926V26.0004H18.7778V18.7782C18.7778 18.012 18.4734 17.2772 17.9316 16.7354C17.3899 16.1937 16.6551 15.8893 15.8889 15.8893H10.1111C9.34493 15.8893 8.61013 16.1937 8.06836 16.7354C7.52659 17.2772 7.22222 18.012 7.22222 18.7782V26.0004H2.88889V13.5926Z" fill="black"/>
</g>
<defs>
<clipPath id="clip0_70_18">
<rect width="26" height="28.8889" fill="white"/>
</clipPath>
</defs>
</svg>
