<svg width="18" height="18" viewBox="0 0 18 18" fill="none" xmlns="http://www.w3.org/2000/svg">
<path d="M0.899994 16.56V1.43999C0.899994 1.29678 0.956887 1.15943 1.05816 1.05816C1.15943 0.956887 1.29678 0.899994 1.43999 0.899994H16.56C16.7032 0.899994 16.8406 0.956887 16.9418 1.05816C17.0431 1.15943 17.1 1.29678 17.1 1.43999V16.56C17.1 16.7032 17.0431 16.8406 16.9418 16.9418C16.8406 17.0431 16.7032 17.1 16.56 17.1H1.43999C1.29678 17.1 1.15943 17.0431 1.05816 16.9418C0.956887 16.8406 0.899994 16.7032 0.899994 16.56V16.56Z" stroke="black" stroke-width="1.5"/>
<path d="M8.99999 12.15C8.99999 12.508 8.85776 12.8514 8.60458 13.1046C8.35141 13.3578 8.00803 13.5 7.64999 13.5C7.29195 13.5 6.94857 13.3578 6.69539 13.1046C6.44222 12.8514 6.29999 12.508 6.29999 12.15C6.29999 11.7919 6.44222 11.4486 6.69539 11.1954C6.94857 10.9422 7.29195 10.8 7.64999 10.8C8.00803 10.8 8.35141 10.9422 8.60458 11.1954C8.85776 11.4486 8.99999 11.7919 8.99999 12.15Z" fill="black"/>
<path d="M8.99999 12.15V5.04C8.99999 4.89678 9.05688 4.75943 9.15815 4.65816C9.25942 4.55689 9.39677 4.5 9.53999 4.5H11.7M8.99999 12.15C8.99999 12.508 8.85776 12.8514 8.60458 13.1046C8.35141 13.3578 8.00803 13.5 7.64999 13.5C7.29195 13.5 6.94857 13.3578 6.69539 13.1046C6.44222 12.8514 6.29999 12.508 6.29999 12.15C6.29999 11.792 6.44222 11.4486 6.69539 11.1954C6.94857 10.9422 7.29195 10.8 7.64999 10.8C8.00803 10.8 8.35141 10.9422 8.60458 11.1954C8.85776 11.4486 8.99999 11.792 8.99999 12.15V12.15Z" stroke="black" stroke-width="1.5" stroke-linecap="round"/>
</svg>
