<svg width="26" height="26" viewBox="0 0 26 26" fill="none" xmlns="http://www.w3.org/2000/svg">
<g clip-path="url(#clip0_70_15)">
<path d="M15.3991 17.6968C13.4066 19.1135 10.9545 19.7298 8.52897 19.4238C6.1034 19.1178 3.88132 17.9117 2.3031 16.0445C0.724892 14.1773 -0.0942614 11.7854 0.00798883 9.34272C0.110239 6.90005 1.12643 4.58494 2.85517 2.8562C4.5839 1.12747 6.89901 0.111277 9.34168 0.00902643C11.7843 -0.0932238 14.1763 0.725929 16.0434 2.30414C17.9106 3.88235 19.1167 6.10444 19.4228 8.53001C19.7288 10.9556 19.1124 13.4076 17.6958 15.4001L25.5239 23.2261C25.6836 23.3749 25.8116 23.5543 25.9005 23.7536C25.9893 23.953 26.037 24.1682 26.0409 24.3863C26.0447 24.6045 26.0046 24.8213 25.9229 25.0236C25.8411 25.226 25.7195 25.4098 25.5652 25.5641C25.4109 25.7184 25.2271 25.84 25.0247 25.9217C24.8224 26.0035 24.6057 26.0436 24.3875 26.0398C24.1693 26.0359 23.9541 25.9882 23.7548 25.8993C23.5554 25.8105 23.376 25.6825 23.2273 25.5228L15.3991 17.6968ZM16.2506 9.74948C16.2506 8.02557 15.5658 6.37227 14.3468 5.15329C13.1278 3.9343 11.4745 3.24948 9.75061 3.24948C8.0267 3.24948 6.3734 3.9343 5.15441 5.15329C3.93543 6.37227 3.25061 8.02557 3.25061 9.74948C3.25061 11.4734 3.93543 13.1267 5.15441 14.3457C6.3734 15.5647 8.0267 16.2495 9.75061 16.2495C11.4745 16.2495 13.1278 15.5647 14.3468 14.3457C15.5658 13.1267 16.2506 11.4734 16.2506 9.74948Z" fill="black"/>
</g>
<defs>
<clipPath id="clip0_70_15">
<rect width="26" height="26" fill="white"/>
</clipPath>
</defs>
</svg>
