<svg width="38" height="38" viewBox="0 0 18 18" fill="none" xmlns="http://www.w3.org/2000/svg">
<path d="M14.1245 4.4976C13.3786 3.3096 10.0066 3.0576 9.62592 3.0252L9.1986 3V10.3224C9.09873 10.247 8.99217 10.1796 8.88005 10.1208C8.48986 9.9388 8.06394 9.8319 7.62797 9.80653C7.192 9.78117 6.755 9.83786 6.34331 9.9732C4.75833 10.452 3.72888 11.82 4.06297 13.0224C4.13742 13.2767 4.2676 13.514 4.44538 13.7197C4.62317 13.9253 4.84474 14.0948 5.09631 14.2176C5.52758 14.4308 6.00992 14.5398 6.4987 14.5344C6.88792 14.5341 7.27466 14.477 7.6447 14.3652C9.0704 13.9404 10.0416 12.8064 9.99886 11.7156V5.6424C10.8656 5.72271 11.7194 5.89545 12.5434 6.1572C12.6397 6.19157 12.7468 6.18907 12.8412 6.15025C12.9355 6.11143 13.0094 6.03947 13.0464 5.9502C13.0835 5.86093 13.0808 5.76166 13.0389 5.67423C12.9971 5.5868 12.9194 5.51837 12.8231 5.484C11.9017 5.1908 10.9457 5.00105 9.97555 4.9188V3.7812C11.2692 3.9108 13.0833 4.278 13.4407 4.8612C14.2177 6.0888 12.5356 7.5108 12.5201 7.5252C12.4494 7.59013 12.4083 7.6777 12.4053 7.76987C12.4023 7.86204 12.4375 7.95177 12.5038 8.02056C12.57 8.08935 12.6623 8.13195 12.7614 8.13959C12.8606 8.14723 12.9591 8.11931 13.0367 8.0616C13.1416 7.986 15.22 6.24 14.1245 4.4976ZM7.39219 13.6812C7.07813 13.7868 6.74441 13.8329 6.41077 13.8168C6.07714 13.8007 5.75037 13.7228 5.44982 13.5876C5.29051 13.5125 5.14984 13.4074 5.0368 13.2791C4.92376 13.1508 4.84083 13.0021 4.7933 12.8424C4.56021 12.0036 5.35659 11.0244 6.57251 10.6608C6.86107 10.5737 7.16251 10.5287 7.466 10.5276C7.82388 10.5212 8.17779 10.5979 8.49546 10.7508C8.65477 10.8259 8.79544 10.931 8.90848 11.0593C9.02152 11.1876 9.10445 11.3363 9.15198 11.496C9.40838 12.3384 8.612 13.3176 7.39219 13.6812Z" fill="#316AD9"/>
<path d="M17.4 9C17.4 13.6392 13.6392 17.4 9 17.4C7.00969 17.4 5.18253 16.7085 3.74325 15.5523C3.36339 15.2471 3.01059 14.9095 2.68906 14.5438C1.38821 13.0642 0.6 11.1249 0.6 9C0.6 4.36081 4.36081 0.6 9 0.6C13.6392 0.6 17.4 4.36081 17.4 9Z" stroke="#316AD9" stroke-width="1.2" stroke-linejoin="round"/>
</svg>
