<svg xmlns="http://www.w3.org/2000/svg" width="26" height="26" fill="none" viewBox="0 0 26 26"><path fill="#000" d="M13 2.4375C7.176 2.4375 2.4375 7.176 2.4375 13C2.4375 18.824 7.176 23.5625 13 23.5625C18.824 23.5625 23.5625 18.824 23.5625 13C23.5625 7.176 18.824 2.4375 13 2.4375ZM13 4.0625C17.9457 4.0625 21.9375 8.05431 21.9375 13C21.9375 17.9457 17.9457 21.9375 13 21.9375C8.05431 21.9375 4.0625 17.9457 4.0625 13C4.0625 8.05431 8.05431 4.0625 13 4.0625ZM9.92875 8.75875L8.75875 9.92875L11.8333 13L8.76037 16.0713L9.93038 17.2412L13 14.1676L16.0713 17.2388L17.2412 16.0713L14.1676 13L17.2388 9.92875L16.0713 8.75875L13 11.8333L9.92875 8.76037V8.75875Z"/></svg>